<mxfile host="app.diagrams.net" agent="Mozilla/5.0 (Windows NT 10.0; Win64; x64) AppleWebKit/537.36 (KHTML, like Gecko) Chrome/131.0.0.0 Safari/537.36" version="26.0.6">
  <diagram name="Page-1" id="42789a77-a242-8287-6e28-9cd8cfd52e62">
    <mxGraphModel dx="1980" dy="426" grid="1" gridSize="10" guides="1" tooltips="1" connect="1" arrows="1" fold="1" page="1" pageScale="1" pageWidth="1100" pageHeight="850" background="none" math="0" shadow="0">
      <root>
        <mxCell id="0" />
        <mxCell id="1" parent="0" />
        <mxCell id="uxvyGnCYDKH46XtAbTFt-1" value="H1" style="whiteSpace=wrap;html=1;aspect=fixed;fontStyle=1" parent="1" vertex="1">
          <mxGeometry x="-20" y="480" width="80" height="80" as="geometry" />
        </mxCell>
        <mxCell id="uxvyGnCYDKH46XtAbTFt-2" value="S1" style="ellipse;whiteSpace=wrap;html=1;aspect=fixed;fontStyle=1" parent="1" vertex="1">
          <mxGeometry x="30" y="720" width="80" height="80" as="geometry" />
        </mxCell>
        <mxCell id="uxvyGnCYDKH46XtAbTFt-41" style="edgeStyle=none;rounded=0;orthogonalLoop=1;jettySize=auto;html=1;exitX=0.5;exitY=1;exitDx=0;exitDy=0;entryX=0.5;entryY=0;entryDx=0;entryDy=0;endArrow=none;strokeColor=default;fontStyle=1" parent="1" source="uxvyGnCYDKH46XtAbTFt-3" target="uxvyGnCYDKH46XtAbTFt-2" edge="1">
          <mxGeometry relative="1" as="geometry" />
        </mxCell>
        <mxCell id="uxvyGnCYDKH46XtAbTFt-221" style="edgeStyle=none;rounded=0;orthogonalLoop=1;jettySize=auto;html=1;exitX=1;exitY=0;exitDx=0;exitDy=0;entryX=0.5;entryY=1;entryDx=0;entryDy=0;fontSize=12;fontColor=#FF0000;endArrow=none;strokeColor=default;" parent="1" source="uxvyGnCYDKH46XtAbTFt-3" target="uxvyGnCYDKH46XtAbTFt-4" edge="1">
          <mxGeometry relative="1" as="geometry" />
        </mxCell>
        <mxCell id="uxvyGnCYDKH46XtAbTFt-3" value="E1" style="ellipse;whiteSpace=wrap;html=1;aspect=fixed;fontStyle=1" parent="1" vertex="1">
          <mxGeometry x="30" y="600" width="80" height="80" as="geometry" />
        </mxCell>
        <mxCell id="uxvyGnCYDKH46XtAbTFt-25" style="edgeStyle=none;shape=link;rounded=0;orthogonalLoop=1;jettySize=auto;html=1;exitX=0.5;exitY=1;exitDx=0;exitDy=0;strokeColor=none;entryX=1;entryY=0;entryDx=0;entryDy=0;fontStyle=1" parent="1" source="uxvyGnCYDKH46XtAbTFt-4" target="uxvyGnCYDKH46XtAbTFt-3" edge="1">
          <mxGeometry relative="1" as="geometry">
            <mxPoint x="60" y="600" as="targetPoint" />
          </mxGeometry>
        </mxCell>
        <mxCell id="uxvyGnCYDKH46XtAbTFt-4" value="H11" style="whiteSpace=wrap;html=1;aspect=fixed;fontStyle=1" parent="1" vertex="1">
          <mxGeometry x="80" y="480" width="80" height="80" as="geometry" />
        </mxCell>
        <mxCell id="uxvyGnCYDKH46XtAbTFt-50" style="edgeStyle=none;rounded=0;orthogonalLoop=1;jettySize=auto;html=1;exitX=0;exitY=0.5;exitDx=0;exitDy=0;entryX=1;entryY=0.5;entryDx=0;entryDy=0;endArrow=none;strokeColor=default;startArrow=none;fontStyle=1" parent="1" source="uxvyGnCYDKH46XtAbTFt-59" target="uxvyGnCYDKH46XtAbTFt-2" edge="1">
          <mxGeometry relative="1" as="geometry" />
        </mxCell>
        <mxCell id="uxvyGnCYDKH46XtAbTFt-5" value="S2" style="ellipse;whiteSpace=wrap;html=1;aspect=fixed;fontStyle=1" parent="1" vertex="1">
          <mxGeometry x="200" y="720" width="80" height="80" as="geometry" />
        </mxCell>
        <mxCell id="uxvyGnCYDKH46XtAbTFt-42" style="edgeStyle=none;rounded=0;orthogonalLoop=1;jettySize=auto;html=1;exitX=0.5;exitY=1;exitDx=0;exitDy=0;endArrow=none;strokeColor=default;startArrow=none;fontStyle=1" parent="1" source="uxvyGnCYDKH46XtAbTFt-62" target="uxvyGnCYDKH46XtAbTFt-5" edge="1">
          <mxGeometry relative="1" as="geometry" />
        </mxCell>
        <mxCell id="uxvyGnCYDKH46XtAbTFt-6" value="E2" style="ellipse;whiteSpace=wrap;html=1;aspect=fixed;fontStyle=1" parent="1" vertex="1">
          <mxGeometry x="200" y="600" width="80" height="80" as="geometry" />
        </mxCell>
        <mxCell id="uxvyGnCYDKH46XtAbTFt-49" style="edgeStyle=none;rounded=0;orthogonalLoop=1;jettySize=auto;html=1;exitX=0;exitY=0.5;exitDx=0;exitDy=0;endArrow=none;strokeColor=default;entryX=1;entryY=0.5;entryDx=0;entryDy=0;startArrow=none;fontStyle=1" parent="1" source="uxvyGnCYDKH46XtAbTFt-66" target="uxvyGnCYDKH46XtAbTFt-5" edge="1">
          <mxGeometry relative="1" as="geometry">
            <mxPoint x="300" y="770" as="targetPoint" />
          </mxGeometry>
        </mxCell>
        <mxCell id="uxvyGnCYDKH46XtAbTFt-7" value="S3" style="ellipse;whiteSpace=wrap;html=1;aspect=fixed;fontStyle=1" parent="1" vertex="1">
          <mxGeometry x="360" y="720" width="80" height="80" as="geometry" />
        </mxCell>
        <mxCell id="uxvyGnCYDKH46XtAbTFt-51" style="edgeStyle=none;rounded=0;orthogonalLoop=1;jettySize=auto;html=1;exitX=0.5;exitY=1;exitDx=0;exitDy=0;entryX=0.5;entryY=0;entryDx=0;entryDy=0;endArrow=none;strokeColor=default;fontStyle=1" parent="1" source="uxvyGnCYDKH46XtAbTFt-8" target="uxvyGnCYDKH46XtAbTFt-7" edge="1">
          <mxGeometry relative="1" as="geometry" />
        </mxCell>
        <mxCell id="uxvyGnCYDKH46XtAbTFt-8" value="E3" style="ellipse;whiteSpace=wrap;html=1;aspect=fixed;fontStyle=1" parent="1" vertex="1">
          <mxGeometry x="360" y="600" width="80" height="80" as="geometry" />
        </mxCell>
        <mxCell id="uxvyGnCYDKH46XtAbTFt-197" style="edgeStyle=none;rounded=0;orthogonalLoop=1;jettySize=auto;html=1;exitX=1.1;exitY=0.8;exitDx=0;exitDy=0;fontSize=12;endArrow=none;strokeColor=default;startArrow=none;exitPerimeter=0;fontStyle=1" parent="1" source="uxvyGnCYDKH46XtAbTFt-201" target="uxvyGnCYDKH46XtAbTFt-185" edge="1">
          <mxGeometry relative="1" as="geometry" />
        </mxCell>
        <mxCell id="uxvyGnCYDKH46XtAbTFt-9" value="S10" style="ellipse;whiteSpace=wrap;html=1;aspect=fixed;fontStyle=1" parent="1" vertex="1">
          <mxGeometry x="1480" y="720" width="80" height="80" as="geometry" />
        </mxCell>
        <mxCell id="uxvyGnCYDKH46XtAbTFt-47" style="edgeStyle=none;rounded=0;orthogonalLoop=1;jettySize=auto;html=1;exitX=0.5;exitY=1;exitDx=0;exitDy=0;entryX=0.5;entryY=0;entryDx=0;entryDy=0;endArrow=none;strokeColor=default;fontStyle=1" parent="1" source="uxvyGnCYDKH46XtAbTFt-10" target="uxvyGnCYDKH46XtAbTFt-9" edge="1">
          <mxGeometry relative="1" as="geometry" />
        </mxCell>
        <mxCell id="uxvyGnCYDKH46XtAbTFt-10" value="E10" style="ellipse;whiteSpace=wrap;html=1;aspect=fixed;fontStyle=1" parent="1" vertex="1">
          <mxGeometry x="1480" y="600" width="80" height="80" as="geometry" />
        </mxCell>
        <mxCell id="uxvyGnCYDKH46XtAbTFt-44" style="edgeStyle=none;rounded=0;orthogonalLoop=1;jettySize=auto;html=1;exitX=0.5;exitY=1;exitDx=0;exitDy=0;entryX=0.5;entryY=0;entryDx=0;entryDy=0;endArrow=none;strokeColor=default;fontStyle=1" parent="1" source="uxvyGnCYDKH46XtAbTFt-11" target="uxvyGnCYDKH46XtAbTFt-6" edge="1">
          <mxGeometry relative="1" as="geometry" />
        </mxCell>
        <mxCell id="uxvyGnCYDKH46XtAbTFt-11" value="H2" style="whiteSpace=wrap;html=1;aspect=fixed;fontStyle=1" parent="1" vertex="1">
          <mxGeometry x="200" y="480" width="80" height="80" as="geometry" />
        </mxCell>
        <mxCell id="uxvyGnCYDKH46XtAbTFt-45" style="edgeStyle=none;rounded=0;orthogonalLoop=1;jettySize=auto;html=1;exitX=0.5;exitY=1;exitDx=0;exitDy=0;entryX=0.5;entryY=0;entryDx=0;entryDy=0;endArrow=none;strokeColor=default;fontStyle=1" parent="1" source="uxvyGnCYDKH46XtAbTFt-12" target="uxvyGnCYDKH46XtAbTFt-8" edge="1">
          <mxGeometry relative="1" as="geometry" />
        </mxCell>
        <mxCell id="uxvyGnCYDKH46XtAbTFt-12" value="H3" style="whiteSpace=wrap;html=1;aspect=fixed;fontStyle=1" parent="1" vertex="1">
          <mxGeometry x="360" y="480" width="80" height="80" as="geometry" />
        </mxCell>
        <mxCell id="uxvyGnCYDKH46XtAbTFt-46" style="edgeStyle=none;rounded=0;orthogonalLoop=1;jettySize=auto;html=1;exitX=0.5;exitY=1;exitDx=0;exitDy=0;entryX=0.5;entryY=0;entryDx=0;entryDy=0;endArrow=none;strokeColor=default;fontStyle=1" parent="1" source="uxvyGnCYDKH46XtAbTFt-13" target="uxvyGnCYDKH46XtAbTFt-10" edge="1">
          <mxGeometry relative="1" as="geometry" />
        </mxCell>
        <mxCell id="uxvyGnCYDKH46XtAbTFt-13" value="H10" style="whiteSpace=wrap;html=1;aspect=fixed;fontStyle=1" parent="1" vertex="1">
          <mxGeometry x="1480" y="480" width="80" height="80" as="geometry" />
        </mxCell>
        <mxCell id="uxvyGnCYDKH46XtAbTFt-38" value="" style="endArrow=none;html=1;rounded=0;strokeColor=default;exitX=0.5;exitY=1;exitDx=0;exitDy=0;entryX=0;entryY=0;entryDx=0;entryDy=0;fontStyle=1" parent="1" source="uxvyGnCYDKH46XtAbTFt-1" target="uxvyGnCYDKH46XtAbTFt-3" edge="1">
          <mxGeometry width="50" height="50" relative="1" as="geometry">
            <mxPoint x="320" y="680" as="sourcePoint" />
            <mxPoint x="370" y="630" as="targetPoint" />
          </mxGeometry>
        </mxCell>
        <mxCell id="uxvyGnCYDKH46XtAbTFt-54" value="&lt;font style=&quot;font-size: 16px&quot;&gt;&lt;span style=&quot;font-size: 12px&quot;&gt;1&lt;/span&gt;&lt;/font&gt;" style="text;html=1;align=center;verticalAlign=middle;resizable=0;points=[];autosize=1;strokeColor=none;fillColor=none;fontSize=24;fontStyle=1;fontColor=#FF0000;" parent="1" vertex="1">
          <mxGeometry x="70" y="690" width="20" height="40" as="geometry" />
        </mxCell>
        <mxCell id="uxvyGnCYDKH46XtAbTFt-56" value="2" style="text;html=1;align=center;verticalAlign=middle;resizable=0;points=[];autosize=1;strokeColor=none;fillColor=none;fontSize=12;fontStyle=1;fontColor=#FF0000;" parent="1" vertex="1">
          <mxGeometry x="70" y="680" width="20" height="20" as="geometry" />
        </mxCell>
        <mxCell id="uxvyGnCYDKH46XtAbTFt-57" value="1" style="text;html=1;align=center;verticalAlign=middle;resizable=0;points=[];autosize=1;strokeColor=none;fillColor=none;fontSize=12;fontStyle=1;fontColor=#FF0000;" parent="1" vertex="1">
          <mxGeometry x="32" y="583" width="20" height="20" as="geometry" />
        </mxCell>
        <mxCell id="uxvyGnCYDKH46XtAbTFt-59" value="2" style="text;html=1;align=center;verticalAlign=middle;resizable=0;points=[];autosize=1;strokeColor=none;fillColor=none;fontSize=12;fontStyle=1;fontColor=#FF0000;" parent="1" vertex="1">
          <mxGeometry x="110" y="743" width="20" height="20" as="geometry" />
        </mxCell>
        <mxCell id="uxvyGnCYDKH46XtAbTFt-60" value="" style="edgeStyle=none;rounded=0;orthogonalLoop=1;jettySize=auto;html=1;exitX=0;exitY=0.5;exitDx=0;exitDy=0;entryX=0.041;entryY=0.862;entryDx=0;entryDy=0;endArrow=none;strokeColor=default;entryPerimeter=0;fontStyle=1" parent="1" source="uxvyGnCYDKH46XtAbTFt-5" target="uxvyGnCYDKH46XtAbTFt-59" edge="1">
          <mxGeometry relative="1" as="geometry">
            <mxPoint x="199.99999999999977" y="760" as="sourcePoint" />
            <mxPoint x="109.99999999999977" y="760" as="targetPoint" />
          </mxGeometry>
        </mxCell>
        <mxCell id="uxvyGnCYDKH46XtAbTFt-61" value="2" style="text;html=1;align=center;verticalAlign=middle;resizable=0;points=[];autosize=1;strokeColor=none;fillColor=none;fontSize=12;fontStyle=1;fontColor=#FF0000;" parent="1" vertex="1">
          <mxGeometry x="180" y="743" width="20" height="20" as="geometry" />
        </mxCell>
        <mxCell id="uxvyGnCYDKH46XtAbTFt-62" value="1" style="text;html=1;align=center;verticalAlign=middle;resizable=0;points=[];autosize=1;strokeColor=none;fillColor=none;fontSize=12;fontStyle=1;fontColor=#FF0000;" parent="1" vertex="1">
          <mxGeometry x="240" y="700" width="20" height="20" as="geometry" />
        </mxCell>
        <mxCell id="uxvyGnCYDKH46XtAbTFt-63" value="" style="edgeStyle=none;rounded=0;orthogonalLoop=1;jettySize=auto;html=1;exitX=0.5;exitY=1;exitDx=0;exitDy=0;endArrow=none;strokeColor=default;fontStyle=1" parent="1" source="uxvyGnCYDKH46XtAbTFt-6" edge="1">
          <mxGeometry relative="1" as="geometry">
            <mxPoint x="239.99999999999977" y="679.9999999999999" as="sourcePoint" />
            <mxPoint x="240" y="720" as="targetPoint" />
          </mxGeometry>
        </mxCell>
        <mxCell id="uxvyGnCYDKH46XtAbTFt-64" value="2" style="text;html=1;align=center;verticalAlign=middle;resizable=0;points=[];autosize=1;strokeColor=none;fillColor=none;fontSize=12;fontStyle=1;fontColor=#FF0000;" parent="1" vertex="1">
          <mxGeometry x="240" y="680" width="20" height="20" as="geometry" />
        </mxCell>
        <mxCell id="uxvyGnCYDKH46XtAbTFt-65" value="1" style="text;html=1;align=center;verticalAlign=middle;resizable=0;points=[];autosize=1;strokeColor=none;fillColor=none;fontSize=12;fontStyle=1;fontColor=#FF0000;" parent="1" vertex="1">
          <mxGeometry x="240" y="580" width="20" height="20" as="geometry" />
        </mxCell>
        <mxCell id="uxvyGnCYDKH46XtAbTFt-66" value="3" style="text;html=1;align=center;verticalAlign=middle;resizable=0;points=[];autosize=1;strokeColor=none;fillColor=none;fontSize=12;fontStyle=1;fontColor=#FF0000;" parent="1" vertex="1">
          <mxGeometry x="280" y="743" width="20" height="20" as="geometry" />
        </mxCell>
        <mxCell id="uxvyGnCYDKH46XtAbTFt-67" value="" style="edgeStyle=none;rounded=0;orthogonalLoop=1;jettySize=auto;html=1;exitX=0;exitY=0.5;exitDx=0;exitDy=0;endArrow=none;strokeColor=default;entryX=0.059;entryY=0.862;entryDx=0;entryDy=0;entryPerimeter=0;fontStyle=1" parent="1" source="uxvyGnCYDKH46XtAbTFt-7" target="uxvyGnCYDKH46XtAbTFt-66" edge="1">
          <mxGeometry relative="1" as="geometry">
            <mxPoint x="279.9999999999998" y="760" as="targetPoint" />
            <mxPoint x="360.0000000000082" y="760" as="sourcePoint" />
          </mxGeometry>
        </mxCell>
        <mxCell id="uxvyGnCYDKH46XtAbTFt-68" value="2" style="text;html=1;align=center;verticalAlign=middle;resizable=0;points=[];autosize=1;strokeColor=none;fillColor=none;fontSize=12;fontStyle=1;fontColor=#FF0000;" parent="1" vertex="1">
          <mxGeometry x="340" y="743" width="20" height="20" as="geometry" />
        </mxCell>
        <mxCell id="uxvyGnCYDKH46XtAbTFt-69" value="1" style="text;html=1;align=center;verticalAlign=middle;resizable=0;points=[];autosize=1;strokeColor=none;fillColor=none;fontSize=12;fontStyle=1;fontColor=#FF0000;" parent="1" vertex="1">
          <mxGeometry x="400" y="700" width="20" height="20" as="geometry" />
        </mxCell>
        <mxCell id="uxvyGnCYDKH46XtAbTFt-70" value="2" style="text;html=1;align=center;verticalAlign=middle;resizable=0;points=[];autosize=1;strokeColor=none;fillColor=none;fontSize=12;fontStyle=1;fontColor=#FF0000;" parent="1" vertex="1">
          <mxGeometry x="400" y="680" width="20" height="20" as="geometry" />
        </mxCell>
        <mxCell id="uxvyGnCYDKH46XtAbTFt-71" value="1" style="text;html=1;align=center;verticalAlign=middle;resizable=0;points=[];autosize=1;strokeColor=none;fillColor=none;fontSize=12;fontStyle=1;fontColor=#FF0000;" parent="1" vertex="1">
          <mxGeometry x="400" y="580" width="20" height="20" as="geometry" />
        </mxCell>
        <mxCell id="uxvyGnCYDKH46XtAbTFt-72" value="3" style="text;html=1;align=center;verticalAlign=middle;resizable=0;points=[];autosize=1;strokeColor=none;fillColor=none;fontSize=12;fontStyle=1;fontColor=#FF0000;" parent="1" vertex="1">
          <mxGeometry x="440" y="743" width="20" height="20" as="geometry" />
        </mxCell>
        <mxCell id="uxvyGnCYDKH46XtAbTFt-168" style="edgeStyle=none;rounded=0;orthogonalLoop=1;jettySize=auto;html=1;fontSize=12;endArrow=none;strokeColor=default;startArrow=none;fontStyle=1" parent="1" source="uxvyGnCYDKH46XtAbTFt-123" target="uxvyGnCYDKH46XtAbTFt-7" edge="1">
          <mxGeometry relative="1" as="geometry" />
        </mxCell>
        <mxCell id="uxvyGnCYDKH46XtAbTFt-123" value="S4" style="ellipse;whiteSpace=wrap;html=1;aspect=fixed;fontStyle=1" parent="1" vertex="1">
          <mxGeometry x="520" y="720" width="80" height="80" as="geometry" />
        </mxCell>
        <mxCell id="uxvyGnCYDKH46XtAbTFt-124" style="edgeStyle=none;rounded=0;orthogonalLoop=1;jettySize=auto;html=1;exitX=0.5;exitY=1;exitDx=0;exitDy=0;entryX=0.5;entryY=0;entryDx=0;entryDy=0;endArrow=none;strokeColor=default;fontStyle=1" parent="1" source="uxvyGnCYDKH46XtAbTFt-125" target="uxvyGnCYDKH46XtAbTFt-123" edge="1">
          <mxGeometry relative="1" as="geometry" />
        </mxCell>
        <mxCell id="uxvyGnCYDKH46XtAbTFt-125" value="E4" style="ellipse;whiteSpace=wrap;html=1;aspect=fixed;fontStyle=1" parent="1" vertex="1">
          <mxGeometry x="520" y="600" width="80" height="80" as="geometry" />
        </mxCell>
        <mxCell id="uxvyGnCYDKH46XtAbTFt-126" style="edgeStyle=none;rounded=0;orthogonalLoop=1;jettySize=auto;html=1;exitX=0.5;exitY=1;exitDx=0;exitDy=0;entryX=0.5;entryY=0;entryDx=0;entryDy=0;endArrow=none;strokeColor=default;fontStyle=1" parent="1" source="uxvyGnCYDKH46XtAbTFt-127" target="uxvyGnCYDKH46XtAbTFt-125" edge="1">
          <mxGeometry relative="1" as="geometry" />
        </mxCell>
        <mxCell id="uxvyGnCYDKH46XtAbTFt-127" value="H4" style="whiteSpace=wrap;html=1;aspect=fixed;fontStyle=1" parent="1" vertex="1">
          <mxGeometry x="520" y="480" width="80" height="80" as="geometry" />
        </mxCell>
        <mxCell id="uxvyGnCYDKH46XtAbTFt-128" value="1" style="text;html=1;align=center;verticalAlign=middle;resizable=0;points=[];autosize=1;strokeColor=none;fillColor=none;fontSize=12;fontStyle=1;fontColor=#FF0000;" parent="1" vertex="1">
          <mxGeometry x="560" y="700" width="20" height="20" as="geometry" />
        </mxCell>
        <mxCell id="uxvyGnCYDKH46XtAbTFt-129" value="2" style="text;html=1;align=center;verticalAlign=middle;resizable=0;points=[];autosize=1;strokeColor=none;fillColor=none;fontSize=12;fontStyle=1;fontColor=#FF0000;" parent="1" vertex="1">
          <mxGeometry x="560" y="680" width="20" height="20" as="geometry" />
        </mxCell>
        <mxCell id="uxvyGnCYDKH46XtAbTFt-130" value="1" style="text;html=1;align=center;verticalAlign=middle;resizable=0;points=[];autosize=1;strokeColor=none;fillColor=none;fontSize=12;fontStyle=1;fontColor=#FF0000;" parent="1" vertex="1">
          <mxGeometry x="560" y="580" width="20" height="20" as="geometry" />
        </mxCell>
        <mxCell id="uxvyGnCYDKH46XtAbTFt-131" value="3" style="text;html=1;align=center;verticalAlign=middle;resizable=0;points=[];autosize=1;strokeColor=none;fillColor=none;fontSize=12;fontStyle=1;fontColor=#FF0000;" parent="1" vertex="1">
          <mxGeometry x="600" y="743" width="20" height="20" as="geometry" />
        </mxCell>
        <mxCell id="uxvyGnCYDKH46XtAbTFt-169" style="edgeStyle=none;rounded=0;orthogonalLoop=1;jettySize=auto;html=1;exitX=0;exitY=0.5;exitDx=0;exitDy=0;fontSize=12;endArrow=none;strokeColor=default;fontStyle=1" parent="1" source="uxvyGnCYDKH46XtAbTFt-132" target="uxvyGnCYDKH46XtAbTFt-123" edge="1">
          <mxGeometry relative="1" as="geometry" />
        </mxCell>
        <mxCell id="uxvyGnCYDKH46XtAbTFt-132" value="S5" style="ellipse;whiteSpace=wrap;html=1;aspect=fixed;fontStyle=1" parent="1" vertex="1">
          <mxGeometry x="680" y="720" width="80" height="80" as="geometry" />
        </mxCell>
        <mxCell id="uxvyGnCYDKH46XtAbTFt-133" style="edgeStyle=none;rounded=0;orthogonalLoop=1;jettySize=auto;html=1;exitX=0.5;exitY=1;exitDx=0;exitDy=0;entryX=0.5;entryY=0;entryDx=0;entryDy=0;endArrow=none;strokeColor=default;fontStyle=1" parent="1" source="uxvyGnCYDKH46XtAbTFt-134" target="uxvyGnCYDKH46XtAbTFt-132" edge="1">
          <mxGeometry relative="1" as="geometry" />
        </mxCell>
        <mxCell id="uxvyGnCYDKH46XtAbTFt-134" value="E5" style="ellipse;whiteSpace=wrap;html=1;aspect=fixed;fontStyle=1" parent="1" vertex="1">
          <mxGeometry x="680" y="600" width="80" height="80" as="geometry" />
        </mxCell>
        <mxCell id="uxvyGnCYDKH46XtAbTFt-135" style="edgeStyle=none;rounded=0;orthogonalLoop=1;jettySize=auto;html=1;exitX=0.5;exitY=1;exitDx=0;exitDy=0;entryX=0.5;entryY=0;entryDx=0;entryDy=0;endArrow=none;strokeColor=default;fontStyle=1" parent="1" source="uxvyGnCYDKH46XtAbTFt-136" target="uxvyGnCYDKH46XtAbTFt-134" edge="1">
          <mxGeometry relative="1" as="geometry" />
        </mxCell>
        <mxCell id="uxvyGnCYDKH46XtAbTFt-136" value="H5" style="whiteSpace=wrap;html=1;aspect=fixed;fontStyle=1" parent="1" vertex="1">
          <mxGeometry x="680" y="480" width="80" height="80" as="geometry" />
        </mxCell>
        <mxCell id="uxvyGnCYDKH46XtAbTFt-137" value="1" style="text;html=1;align=center;verticalAlign=middle;resizable=0;points=[];autosize=1;strokeColor=none;fillColor=none;fontSize=12;fontStyle=1;fontColor=#FF0000;" parent="1" vertex="1">
          <mxGeometry x="720" y="700" width="20" height="20" as="geometry" />
        </mxCell>
        <mxCell id="uxvyGnCYDKH46XtAbTFt-138" value="2" style="text;html=1;align=center;verticalAlign=middle;resizable=0;points=[];autosize=1;strokeColor=none;fillColor=none;fontSize=12;fontStyle=1;fontColor=#FF0000;" parent="1" vertex="1">
          <mxGeometry x="720" y="680" width="20" height="20" as="geometry" />
        </mxCell>
        <mxCell id="uxvyGnCYDKH46XtAbTFt-139" value="1" style="text;html=1;align=center;verticalAlign=middle;resizable=0;points=[];autosize=1;strokeColor=none;fillColor=none;fontSize=12;fontStyle=1;fontColor=#FF0000;" parent="1" vertex="1">
          <mxGeometry x="720" y="580" width="20" height="20" as="geometry" />
        </mxCell>
        <mxCell id="uxvyGnCYDKH46XtAbTFt-140" value="3" style="text;html=1;align=center;verticalAlign=middle;resizable=0;points=[];autosize=1;strokeColor=none;fillColor=none;fontSize=12;fontStyle=1;fontColor=#FF0000;" parent="1" vertex="1">
          <mxGeometry x="760" y="743" width="20" height="20" as="geometry" />
        </mxCell>
        <mxCell id="uxvyGnCYDKH46XtAbTFt-170" style="edgeStyle=none;rounded=0;orthogonalLoop=1;jettySize=auto;html=1;exitX=0;exitY=0.5;exitDx=0;exitDy=0;fontSize=12;endArrow=none;strokeColor=default;fontStyle=1" parent="1" source="uxvyGnCYDKH46XtAbTFt-141" target="uxvyGnCYDKH46XtAbTFt-132" edge="1">
          <mxGeometry relative="1" as="geometry" />
        </mxCell>
        <mxCell id="uxvyGnCYDKH46XtAbTFt-141" value="S6" style="ellipse;whiteSpace=wrap;html=1;aspect=fixed;fontStyle=1" parent="1" vertex="1">
          <mxGeometry x="840" y="720" width="80" height="80" as="geometry" />
        </mxCell>
        <mxCell id="uxvyGnCYDKH46XtAbTFt-142" style="edgeStyle=none;rounded=0;orthogonalLoop=1;jettySize=auto;html=1;exitX=0.5;exitY=1;exitDx=0;exitDy=0;entryX=0.5;entryY=0;entryDx=0;entryDy=0;endArrow=none;strokeColor=default;fontStyle=1" parent="1" source="uxvyGnCYDKH46XtAbTFt-143" target="uxvyGnCYDKH46XtAbTFt-141" edge="1">
          <mxGeometry relative="1" as="geometry" />
        </mxCell>
        <mxCell id="uxvyGnCYDKH46XtAbTFt-143" value="E6" style="ellipse;whiteSpace=wrap;html=1;aspect=fixed;fontStyle=1" parent="1" vertex="1">
          <mxGeometry x="840" y="600" width="80" height="80" as="geometry" />
        </mxCell>
        <mxCell id="uxvyGnCYDKH46XtAbTFt-144" style="edgeStyle=none;rounded=0;orthogonalLoop=1;jettySize=auto;html=1;exitX=0.5;exitY=1;exitDx=0;exitDy=0;entryX=0.5;entryY=0;entryDx=0;entryDy=0;endArrow=none;strokeColor=default;fontStyle=1" parent="1" source="uxvyGnCYDKH46XtAbTFt-145" target="uxvyGnCYDKH46XtAbTFt-143" edge="1">
          <mxGeometry relative="1" as="geometry" />
        </mxCell>
        <mxCell id="uxvyGnCYDKH46XtAbTFt-145" value="H6" style="whiteSpace=wrap;html=1;aspect=fixed;fontStyle=1" parent="1" vertex="1">
          <mxGeometry x="840" y="480" width="80" height="80" as="geometry" />
        </mxCell>
        <mxCell id="uxvyGnCYDKH46XtAbTFt-146" value="1" style="text;html=1;align=center;verticalAlign=middle;resizable=0;points=[];autosize=1;strokeColor=none;fillColor=none;fontSize=12;fontStyle=1;fontColor=#FF0000;" parent="1" vertex="1">
          <mxGeometry x="880" y="700" width="20" height="20" as="geometry" />
        </mxCell>
        <mxCell id="uxvyGnCYDKH46XtAbTFt-147" value="2" style="text;html=1;align=center;verticalAlign=middle;resizable=0;points=[];autosize=1;strokeColor=none;fillColor=none;fontSize=12;fontStyle=1;fontColor=#FF0000;" parent="1" vertex="1">
          <mxGeometry x="880" y="680" width="20" height="20" as="geometry" />
        </mxCell>
        <mxCell id="uxvyGnCYDKH46XtAbTFt-148" value="1" style="text;html=1;align=center;verticalAlign=middle;resizable=0;points=[];autosize=1;strokeColor=none;fillColor=none;fontSize=12;fontStyle=1;fontColor=#FF0000;" parent="1" vertex="1">
          <mxGeometry x="880" y="580" width="20" height="20" as="geometry" />
        </mxCell>
        <mxCell id="uxvyGnCYDKH46XtAbTFt-171" style="edgeStyle=none;rounded=0;orthogonalLoop=1;jettySize=auto;html=1;exitX=0;exitY=0.5;exitDx=0;exitDy=0;fontSize=12;endArrow=none;strokeColor=default;startArrow=none;fontStyle=1" parent="1" source="uxvyGnCYDKH46XtAbTFt-181" target="uxvyGnCYDKH46XtAbTFt-141" edge="1">
          <mxGeometry relative="1" as="geometry" />
        </mxCell>
        <mxCell id="uxvyGnCYDKH46XtAbTFt-150" value="S7" style="ellipse;whiteSpace=wrap;html=1;aspect=fixed;fontStyle=1" parent="1" vertex="1">
          <mxGeometry x="1000" y="720" width="80" height="80" as="geometry" />
        </mxCell>
        <mxCell id="uxvyGnCYDKH46XtAbTFt-151" style="edgeStyle=none;rounded=0;orthogonalLoop=1;jettySize=auto;html=1;exitX=0.5;exitY=1;exitDx=0;exitDy=0;entryX=0.5;entryY=0;entryDx=0;entryDy=0;endArrow=none;strokeColor=default;fontStyle=1" parent="1" source="uxvyGnCYDKH46XtAbTFt-152" target="uxvyGnCYDKH46XtAbTFt-150" edge="1">
          <mxGeometry relative="1" as="geometry" />
        </mxCell>
        <mxCell id="uxvyGnCYDKH46XtAbTFt-152" value="E7" style="ellipse;whiteSpace=wrap;html=1;aspect=fixed;fontStyle=1" parent="1" vertex="1">
          <mxGeometry x="1000" y="600" width="80" height="80" as="geometry" />
        </mxCell>
        <mxCell id="uxvyGnCYDKH46XtAbTFt-153" style="edgeStyle=none;rounded=0;orthogonalLoop=1;jettySize=auto;html=1;exitX=0.5;exitY=1;exitDx=0;exitDy=0;entryX=0.5;entryY=0;entryDx=0;entryDy=0;endArrow=none;strokeColor=default;fontStyle=1" parent="1" source="uxvyGnCYDKH46XtAbTFt-154" target="uxvyGnCYDKH46XtAbTFt-152" edge="1">
          <mxGeometry relative="1" as="geometry" />
        </mxCell>
        <mxCell id="uxvyGnCYDKH46XtAbTFt-154" value="H7" style="whiteSpace=wrap;html=1;aspect=fixed;fontStyle=1" parent="1" vertex="1">
          <mxGeometry x="1000" y="480" width="80" height="80" as="geometry" />
        </mxCell>
        <mxCell id="uxvyGnCYDKH46XtAbTFt-155" value="1" style="text;html=1;align=center;verticalAlign=middle;resizable=0;points=[];autosize=1;strokeColor=none;fillColor=none;fontSize=12;fontStyle=1;fontColor=#FF0000;" parent="1" vertex="1">
          <mxGeometry x="1040" y="700" width="20" height="20" as="geometry" />
        </mxCell>
        <mxCell id="uxvyGnCYDKH46XtAbTFt-156" value="2" style="text;html=1;align=center;verticalAlign=middle;resizable=0;points=[];autosize=1;strokeColor=none;fillColor=none;fontSize=12;fontStyle=1;fontColor=#FF0000;" parent="1" vertex="1">
          <mxGeometry x="1040" y="680" width="20" height="20" as="geometry" />
        </mxCell>
        <mxCell id="uxvyGnCYDKH46XtAbTFt-157" value="1" style="text;html=1;align=center;verticalAlign=middle;resizable=0;points=[];autosize=1;strokeColor=none;fillColor=none;fontSize=12;fontStyle=1" parent="1" vertex="1">
          <mxGeometry x="1040" y="580" width="20" height="20" as="geometry" />
        </mxCell>
        <mxCell id="uxvyGnCYDKH46XtAbTFt-158" value="3" style="text;html=1;align=center;verticalAlign=middle;resizable=0;points=[];autosize=1;strokeColor=none;fillColor=none;fontSize=12;fontStyle=1" parent="1" vertex="1">
          <mxGeometry x="1080" y="743" width="20" height="20" as="geometry" />
        </mxCell>
        <mxCell id="uxvyGnCYDKH46XtAbTFt-172" style="edgeStyle=none;rounded=0;orthogonalLoop=1;jettySize=auto;html=1;exitX=0;exitY=0.5;exitDx=0;exitDy=0;fontSize=12;endArrow=none;strokeColor=default;fontStyle=1" parent="1" source="uxvyGnCYDKH46XtAbTFt-159" target="uxvyGnCYDKH46XtAbTFt-150" edge="1">
          <mxGeometry relative="1" as="geometry" />
        </mxCell>
        <mxCell id="uxvyGnCYDKH46XtAbTFt-195" style="edgeStyle=none;rounded=0;orthogonalLoop=1;jettySize=auto;html=1;exitX=1;exitY=0.5;exitDx=0;exitDy=0;fontSize=12;endArrow=none;strokeColor=default;fontStyle=1" parent="1" source="uxvyGnCYDKH46XtAbTFt-159" target="uxvyGnCYDKH46XtAbTFt-185" edge="1">
          <mxGeometry relative="1" as="geometry" />
        </mxCell>
        <mxCell id="uxvyGnCYDKH46XtAbTFt-159" value="S8" style="ellipse;whiteSpace=wrap;html=1;aspect=fixed;fontStyle=1" parent="1" vertex="1">
          <mxGeometry x="1160" y="720" width="80" height="80" as="geometry" />
        </mxCell>
        <mxCell id="uxvyGnCYDKH46XtAbTFt-160" style="edgeStyle=none;rounded=0;orthogonalLoop=1;jettySize=auto;html=1;exitX=0.5;exitY=1;exitDx=0;exitDy=0;entryX=0.5;entryY=0;entryDx=0;entryDy=0;endArrow=none;strokeColor=default;fontStyle=1" parent="1" source="uxvyGnCYDKH46XtAbTFt-161" target="uxvyGnCYDKH46XtAbTFt-159" edge="1">
          <mxGeometry relative="1" as="geometry" />
        </mxCell>
        <mxCell id="uxvyGnCYDKH46XtAbTFt-161" value="E8" style="ellipse;whiteSpace=wrap;html=1;aspect=fixed;fontStyle=1" parent="1" vertex="1">
          <mxGeometry x="1160" y="600" width="80" height="80" as="geometry" />
        </mxCell>
        <mxCell id="uxvyGnCYDKH46XtAbTFt-162" style="edgeStyle=none;rounded=0;orthogonalLoop=1;jettySize=auto;html=1;exitX=0.5;exitY=1;exitDx=0;exitDy=0;entryX=0.5;entryY=0;entryDx=0;entryDy=0;endArrow=none;strokeColor=default;fontStyle=1" parent="1" source="uxvyGnCYDKH46XtAbTFt-163" target="uxvyGnCYDKH46XtAbTFt-161" edge="1">
          <mxGeometry relative="1" as="geometry" />
        </mxCell>
        <mxCell id="uxvyGnCYDKH46XtAbTFt-163" value="H8" style="whiteSpace=wrap;html=1;aspect=fixed;fontStyle=1" parent="1" vertex="1">
          <mxGeometry x="1160" y="480" width="80" height="80" as="geometry" />
        </mxCell>
        <mxCell id="uxvyGnCYDKH46XtAbTFt-164" value="1" style="text;html=1;align=center;verticalAlign=middle;resizable=0;points=[];autosize=1;strokeColor=none;fillColor=none;fontSize=12;fontStyle=1;fontColor=#FF0000;" parent="1" vertex="1">
          <mxGeometry x="1200" y="700" width="20" height="20" as="geometry" />
        </mxCell>
        <mxCell id="uxvyGnCYDKH46XtAbTFt-165" value="2" style="text;html=1;align=center;verticalAlign=middle;resizable=0;points=[];autosize=1;strokeColor=none;fillColor=none;fontSize=12;fontStyle=1;fontColor=#FF0000;" parent="1" vertex="1">
          <mxGeometry x="1200" y="680" width="20" height="20" as="geometry" />
        </mxCell>
        <mxCell id="uxvyGnCYDKH46XtAbTFt-166" value="1" style="text;html=1;align=center;verticalAlign=middle;resizable=0;points=[];autosize=1;strokeColor=none;fillColor=none;fontSize=12;fontStyle=1" parent="1" vertex="1">
          <mxGeometry x="1200" y="580" width="20" height="20" as="geometry" />
        </mxCell>
        <mxCell id="uxvyGnCYDKH46XtAbTFt-167" value="3" style="text;html=1;align=center;verticalAlign=middle;resizable=0;points=[];autosize=1;strokeColor=none;fillColor=none;fontSize=12;fontStyle=1" parent="1" vertex="1">
          <mxGeometry x="1240" y="743" width="20" height="20" as="geometry" />
        </mxCell>
        <mxCell id="uxvyGnCYDKH46XtAbTFt-174" value="2" style="text;html=1;align=center;verticalAlign=middle;resizable=0;points=[];autosize=1;strokeColor=none;fillColor=none;fontSize=12;fontStyle=1;fontColor=#FF0000;" parent="1" vertex="1">
          <mxGeometry x="500" y="743" width="20" height="20" as="geometry" />
        </mxCell>
        <mxCell id="uxvyGnCYDKH46XtAbTFt-175" value="" style="edgeStyle=none;rounded=0;orthogonalLoop=1;jettySize=auto;html=1;exitX=0;exitY=0.5;exitDx=0;exitDy=0;fontSize=12;endArrow=none;strokeColor=default;fontStyle=1" parent="1" source="uxvyGnCYDKH46XtAbTFt-123" target="uxvyGnCYDKH46XtAbTFt-174" edge="1">
          <mxGeometry relative="1" as="geometry">
            <mxPoint x="520" y="760" as="sourcePoint" />
            <mxPoint x="440" y="760" as="targetPoint" />
          </mxGeometry>
        </mxCell>
        <mxCell id="uxvyGnCYDKH46XtAbTFt-176" value="2" style="text;html=1;align=center;verticalAlign=middle;resizable=0;points=[];autosize=1;strokeColor=none;fillColor=none;fontSize=12;fontStyle=1;fontColor=#FF0000;" parent="1" vertex="1">
          <mxGeometry x="660" y="743" width="20" height="20" as="geometry" />
        </mxCell>
        <mxCell id="uxvyGnCYDKH46XtAbTFt-177" value="2" style="text;html=1;align=center;verticalAlign=middle;resizable=0;points=[];autosize=1;strokeColor=none;fillColor=none;fontSize=12;fontStyle=1;fontColor=#FF0000;" parent="1" vertex="1">
          <mxGeometry x="820" y="743" width="20" height="20" as="geometry" />
        </mxCell>
        <mxCell id="uxvyGnCYDKH46XtAbTFt-178" value="2" style="text;html=1;align=center;verticalAlign=middle;resizable=0;points=[];autosize=1;strokeColor=none;fillColor=none;fontSize=12;fontStyle=1;fontColor=#FF0000;" parent="1" vertex="1">
          <mxGeometry x="980" y="743" width="20" height="20" as="geometry" />
        </mxCell>
        <mxCell id="uxvyGnCYDKH46XtAbTFt-179" value="2" style="text;html=1;align=center;verticalAlign=middle;resizable=0;points=[];autosize=1;strokeColor=none;fillColor=none;fontSize=12;fontStyle=1" parent="1" vertex="1">
          <mxGeometry x="1140" y="743" width="20" height="20" as="geometry" />
        </mxCell>
        <mxCell id="uxvyGnCYDKH46XtAbTFt-181" value="3" style="text;html=1;align=center;verticalAlign=middle;resizable=0;points=[];autosize=1;strokeColor=none;fillColor=none;fontSize=12;fontStyle=1;fontColor=#FF0000;" parent="1" vertex="1">
          <mxGeometry x="920" y="743" width="20" height="20" as="geometry" />
        </mxCell>
        <mxCell id="uxvyGnCYDKH46XtAbTFt-183" value="" style="edgeStyle=none;rounded=0;orthogonalLoop=1;jettySize=auto;html=1;exitX=0;exitY=0.5;exitDx=0;exitDy=0;fontSize=12;endArrow=none;strokeColor=default;fontStyle=1" parent="1" source="uxvyGnCYDKH46XtAbTFt-150" edge="1">
          <mxGeometry relative="1" as="geometry">
            <mxPoint x="1000" y="760" as="sourcePoint" />
            <mxPoint x="920" y="760" as="targetPoint" />
          </mxGeometry>
        </mxCell>
        <mxCell id="uxvyGnCYDKH46XtAbTFt-185" value="S9" style="ellipse;whiteSpace=wrap;html=1;aspect=fixed;fontStyle=1" parent="1" vertex="1">
          <mxGeometry x="1320" y="720" width="80" height="80" as="geometry" />
        </mxCell>
        <mxCell id="uxvyGnCYDKH46XtAbTFt-186" style="edgeStyle=none;rounded=0;orthogonalLoop=1;jettySize=auto;html=1;exitX=0.5;exitY=1;exitDx=0;exitDy=0;entryX=0.5;entryY=0;entryDx=0;entryDy=0;endArrow=none;strokeColor=default;fontStyle=1" parent="1" source="uxvyGnCYDKH46XtAbTFt-187" target="uxvyGnCYDKH46XtAbTFt-185" edge="1">
          <mxGeometry relative="1" as="geometry" />
        </mxCell>
        <mxCell id="uxvyGnCYDKH46XtAbTFt-187" value="E9" style="ellipse;whiteSpace=wrap;html=1;aspect=fixed;fontStyle=1" parent="1" vertex="1">
          <mxGeometry x="1320" y="600" width="80" height="80" as="geometry" />
        </mxCell>
        <mxCell id="uxvyGnCYDKH46XtAbTFt-188" style="edgeStyle=none;rounded=0;orthogonalLoop=1;jettySize=auto;html=1;exitX=0.5;exitY=1;exitDx=0;exitDy=0;entryX=0.5;entryY=0;entryDx=0;entryDy=0;endArrow=none;strokeColor=default;fontStyle=1" parent="1" source="uxvyGnCYDKH46XtAbTFt-189" target="uxvyGnCYDKH46XtAbTFt-187" edge="1">
          <mxGeometry relative="1" as="geometry" />
        </mxCell>
        <mxCell id="uxvyGnCYDKH46XtAbTFt-189" value="H9" style="whiteSpace=wrap;html=1;aspect=fixed;fontStyle=1" parent="1" vertex="1">
          <mxGeometry x="1320" y="480" width="80" height="80" as="geometry" />
        </mxCell>
        <mxCell id="uxvyGnCYDKH46XtAbTFt-190" value="1" style="text;html=1;align=center;verticalAlign=middle;resizable=0;points=[];autosize=1;strokeColor=none;fillColor=none;fontSize=12;fontStyle=1;fontColor=#FF0000;" parent="1" vertex="1">
          <mxGeometry x="1360" y="700" width="20" height="20" as="geometry" />
        </mxCell>
        <mxCell id="uxvyGnCYDKH46XtAbTFt-191" value="2" style="text;html=1;align=center;verticalAlign=middle;resizable=0;points=[];autosize=1;strokeColor=none;fillColor=none;fontSize=12;fontStyle=1;fontColor=#FF0000;" parent="1" vertex="1">
          <mxGeometry x="1360" y="680" width="20" height="20" as="geometry" />
        </mxCell>
        <mxCell id="uxvyGnCYDKH46XtAbTFt-192" value="1" style="text;html=1;align=center;verticalAlign=middle;resizable=0;points=[];autosize=1;strokeColor=none;fillColor=none;fontSize=12;fontStyle=1" parent="1" vertex="1">
          <mxGeometry x="1360" y="580" width="20" height="20" as="geometry" />
        </mxCell>
        <mxCell id="uxvyGnCYDKH46XtAbTFt-193" value="3" style="text;html=1;align=center;verticalAlign=middle;resizable=0;points=[];autosize=1;strokeColor=none;fillColor=none;fontSize=12;fontStyle=1" parent="1" vertex="1">
          <mxGeometry x="1400" y="743" width="20" height="20" as="geometry" />
        </mxCell>
        <mxCell id="uxvyGnCYDKH46XtAbTFt-194" value="2" style="text;html=1;align=center;verticalAlign=middle;resizable=0;points=[];autosize=1;strokeColor=none;fillColor=none;fontSize=12;fontStyle=1" parent="1" vertex="1">
          <mxGeometry x="1300" y="743" width="20" height="20" as="geometry" />
        </mxCell>
        <mxCell id="uxvyGnCYDKH46XtAbTFt-198" value="1" style="text;html=1;align=center;verticalAlign=middle;resizable=0;points=[];autosize=1;strokeColor=none;fillColor=none;fontSize=12;fontStyle=1" parent="1" vertex="1">
          <mxGeometry x="1520" y="580" width="20" height="20" as="geometry" />
        </mxCell>
        <mxCell id="uxvyGnCYDKH46XtAbTFt-199" value="1" style="text;html=1;align=center;verticalAlign=middle;resizable=0;points=[];autosize=1;strokeColor=none;fillColor=none;fontSize=12;fontStyle=1" parent="1" vertex="1">
          <mxGeometry x="1520" y="700" width="20" height="20" as="geometry" />
        </mxCell>
        <mxCell id="uxvyGnCYDKH46XtAbTFt-200" value="2" style="text;html=1;align=center;verticalAlign=middle;resizable=0;points=[];autosize=1;strokeColor=none;fillColor=none;fontSize=12;fontStyle=1" parent="1" vertex="1">
          <mxGeometry x="1520" y="680" width="20" height="20" as="geometry" />
        </mxCell>
        <mxCell id="uxvyGnCYDKH46XtAbTFt-201" value="2" style="text;html=1;align=center;verticalAlign=middle;resizable=0;points=[];autosize=1;strokeColor=none;fillColor=none;fontSize=12;fontStyle=1" parent="1" vertex="1">
          <mxGeometry x="1460" y="743" width="20" height="20" as="geometry" />
        </mxCell>
        <mxCell id="uxvyGnCYDKH46XtAbTFt-202" value="" style="edgeStyle=none;rounded=0;orthogonalLoop=1;jettySize=auto;html=1;exitX=0;exitY=0.5;exitDx=0;exitDy=0;fontSize=12;endArrow=none;strokeColor=default;fontStyle=1" parent="1" source="uxvyGnCYDKH46XtAbTFt-9" target="uxvyGnCYDKH46XtAbTFt-201" edge="1">
          <mxGeometry relative="1" as="geometry">
            <mxPoint x="1480" y="760" as="sourcePoint" />
            <mxPoint x="1400" y="760" as="targetPoint" />
          </mxGeometry>
        </mxCell>
        <mxCell id="uxvyGnCYDKH46XtAbTFt-209" value="3" style="text;html=1;align=center;verticalAlign=middle;resizable=0;points=[];autosize=1;strokeColor=none;fillColor=none;fontSize=12;fontStyle=1;fontColor=#FF0000;" parent="1" vertex="1">
          <mxGeometry x="1080" y="743" width="20" height="20" as="geometry" />
        </mxCell>
        <mxCell id="uxvyGnCYDKH46XtAbTFt-210" value="2" style="text;html=1;align=center;verticalAlign=middle;resizable=0;points=[];autosize=1;strokeColor=none;fillColor=none;fontSize=12;fontStyle=1;fontColor=#FF0000;" parent="1" vertex="1">
          <mxGeometry x="1140" y="743" width="20" height="20" as="geometry" />
        </mxCell>
        <mxCell id="uxvyGnCYDKH46XtAbTFt-211" value="3" style="text;html=1;align=center;verticalAlign=middle;resizable=0;points=[];autosize=1;strokeColor=none;fillColor=none;fontSize=12;fontStyle=1;fontColor=#FF0000;" parent="1" vertex="1">
          <mxGeometry x="1240" y="743" width="20" height="20" as="geometry" />
        </mxCell>
        <mxCell id="uxvyGnCYDKH46XtAbTFt-212" value="2" style="text;html=1;align=center;verticalAlign=middle;resizable=0;points=[];autosize=1;strokeColor=none;fillColor=none;fontSize=12;fontStyle=1;fontColor=#FF0000;" parent="1" vertex="1">
          <mxGeometry x="1300" y="743" width="20" height="20" as="geometry" />
        </mxCell>
        <mxCell id="uxvyGnCYDKH46XtAbTFt-213" value="3" style="text;html=1;align=center;verticalAlign=middle;resizable=0;points=[];autosize=1;strokeColor=none;fillColor=none;fontSize=12;fontStyle=1;fontColor=#FF0000;" parent="1" vertex="1">
          <mxGeometry x="1400" y="743" width="20" height="20" as="geometry" />
        </mxCell>
        <mxCell id="uxvyGnCYDKH46XtAbTFt-214" value="2" style="text;html=1;align=center;verticalAlign=middle;resizable=0;points=[];autosize=1;strokeColor=none;fillColor=none;fontSize=12;fontStyle=1;fontColor=#FF0000;" parent="1" vertex="1">
          <mxGeometry x="1460" y="743" width="20" height="20" as="geometry" />
        </mxCell>
        <mxCell id="uxvyGnCYDKH46XtAbTFt-215" value="1" style="text;html=1;align=center;verticalAlign=middle;resizable=0;points=[];autosize=1;strokeColor=none;fillColor=none;fontSize=12;fontStyle=1;fontColor=#FF0000;" parent="1" vertex="1">
          <mxGeometry x="1520" y="700" width="20" height="20" as="geometry" />
        </mxCell>
        <mxCell id="uxvyGnCYDKH46XtAbTFt-216" value="2" style="text;html=1;align=center;verticalAlign=middle;resizable=0;points=[];autosize=1;strokeColor=none;fillColor=none;fontSize=12;fontStyle=1;fontColor=#FF0000;" parent="1" vertex="1">
          <mxGeometry x="1520" y="680" width="20" height="20" as="geometry" />
        </mxCell>
        <mxCell id="uxvyGnCYDKH46XtAbTFt-217" value="1" style="text;html=1;align=center;verticalAlign=middle;resizable=0;points=[];autosize=1;strokeColor=none;fillColor=none;fontSize=12;fontStyle=1;fontColor=#FF0000;" parent="1" vertex="1">
          <mxGeometry x="1520" y="580" width="20" height="20" as="geometry" />
        </mxCell>
        <mxCell id="uxvyGnCYDKH46XtAbTFt-218" value="1" style="text;html=1;align=center;verticalAlign=middle;resizable=0;points=[];autosize=1;strokeColor=none;fillColor=none;fontSize=12;fontStyle=1;fontColor=#FF0000;" parent="1" vertex="1">
          <mxGeometry x="1360" y="580" width="20" height="20" as="geometry" />
        </mxCell>
        <mxCell id="uxvyGnCYDKH46XtAbTFt-219" value="1" style="text;html=1;align=center;verticalAlign=middle;resizable=0;points=[];autosize=1;strokeColor=none;fillColor=none;fontSize=12;fontStyle=1;fontColor=#FF0000;" parent="1" vertex="1">
          <mxGeometry x="1200" y="580" width="20" height="20" as="geometry" />
        </mxCell>
        <mxCell id="uxvyGnCYDKH46XtAbTFt-220" value="1" style="text;html=1;align=center;verticalAlign=middle;resizable=0;points=[];autosize=1;strokeColor=none;fillColor=none;fontSize=12;fontStyle=1;fontColor=#FF0000;" parent="1" vertex="1">
          <mxGeometry x="1040" y="580" width="20" height="20" as="geometry" />
        </mxCell>
        <mxCell id="VgVbzpThQSde7EoFAIkn-1" value="3" style="text;html=1;align=center;verticalAlign=middle;resizable=0;points=[];autosize=1;strokeColor=none;fillColor=none;fontSize=12;fontStyle=1;fontColor=#FF0000;" parent="1" vertex="1">
          <mxGeometry x="105" y="584" width="20" height="20" as="geometry" />
        </mxCell>
        <mxCell id="VgVbzpThQSde7EoFAIkn-2" value="&lt;span id=&quot;docs-internal-guid-63da66d7-7fff-e41a-0dd7-0c06654d972f&quot;&gt;&lt;span style=&quot;font-size: 11pt ; font-family: &amp;#34;arial&amp;#34; ; background-color: transparent ; vertical-align: baseline&quot;&gt;&lt;font color=&quot;#00cc00&quot;&gt;&lt;b&gt;10000000000101011 &lt;/b&gt;&lt;/font&gt;&lt;/span&gt;&lt;/span&gt;" style="text;html=1;align=center;verticalAlign=middle;resizable=0;points=[];autosize=1;strokeColor=none;fillColor=none;" parent="1" vertex="1">
          <mxGeometry x="-5" y="810" width="150" height="20" as="geometry" />
        </mxCell>
        <mxCell id="VgVbzpThQSde7EoFAIkn-3" value="&lt;font color=&quot;#00cc00&quot; face=&quot;arial&quot;&gt;&lt;span style=&quot;font-size: 14.6667px&quot;&gt;&lt;b&gt;10000000000101101&lt;/b&gt;&lt;/span&gt;&lt;/font&gt;" style="text;html=1;align=center;verticalAlign=middle;resizable=0;points=[];autosize=1;strokeColor=none;fillColor=none;" parent="1" vertex="1">
          <mxGeometry x="165" y="810" width="150" height="20" as="geometry" />
        </mxCell>
        <mxCell id="VgVbzpThQSde7EoFAIkn-4" value="&lt;font color=&quot;#00cc00&quot; face=&quot;arial&quot;&gt;&lt;span style=&quot;font-size: 14.6667px&quot;&gt;&lt;b&gt;10000000000111001&lt;/b&gt;&lt;/span&gt;&lt;/font&gt;" style="text;html=1;align=center;verticalAlign=middle;resizable=0;points=[];autosize=1;strokeColor=none;fillColor=none;" parent="1" vertex="1">
          <mxGeometry x="325" y="810" width="150" height="20" as="geometry" />
        </mxCell>
        <mxCell id="VgVbzpThQSde7EoFAIkn-5" value="&lt;font color=&quot;#00cc00&quot; face=&quot;arial&quot;&gt;&lt;span style=&quot;font-size: 14.6667px&quot;&gt;&lt;b&gt;10000000000111111&lt;/b&gt;&lt;/span&gt;&lt;/font&gt;" style="text;html=1;align=center;verticalAlign=middle;resizable=0;points=[];autosize=1;strokeColor=none;fillColor=none;" parent="1" vertex="1">
          <mxGeometry x="485" y="810" width="150" height="20" as="geometry" />
        </mxCell>
        <mxCell id="VgVbzpThQSde7EoFAIkn-6" value="&lt;font color=&quot;#00cc00&quot; face=&quot;arial&quot;&gt;&lt;span style=&quot;font-size: 14.6667px&quot;&gt;&lt;b&gt;10000000001000111&lt;/b&gt;&lt;/span&gt;&lt;/font&gt;" style="text;html=1;align=center;verticalAlign=middle;resizable=0;points=[];autosize=1;strokeColor=none;fillColor=none;" parent="1" vertex="1">
          <mxGeometry x="645" y="810" width="150" height="20" as="geometry" />
        </mxCell>
        <mxCell id="VgVbzpThQSde7EoFAIkn-7" value="&lt;font color=&quot;#00cc00&quot; face=&quot;arial&quot;&gt;&lt;span style=&quot;font-size: 14.6667px&quot;&gt;&lt;b&gt;10000000001010011&lt;/b&gt;&lt;/span&gt;&lt;/font&gt;" style="text;html=1;align=center;verticalAlign=middle;resizable=0;points=[];autosize=1;strokeColor=none;fillColor=none;" parent="1" vertex="1">
          <mxGeometry x="805" y="810" width="150" height="20" as="geometry" />
        </mxCell>
        <mxCell id="VgVbzpThQSde7EoFAIkn-8" value="&lt;font color=&quot;#00cc00&quot; face=&quot;arial&quot;&gt;&lt;span style=&quot;font-size: 14.6667px&quot;&gt;&lt;b&gt;10000000010001101&lt;/b&gt;&lt;/span&gt;&lt;/font&gt;" style="text;html=1;align=center;verticalAlign=middle;resizable=0;points=[];autosize=1;strokeColor=none;fillColor=none;" parent="1" vertex="1">
          <mxGeometry x="965" y="810" width="150" height="20" as="geometry" />
        </mxCell>
        <mxCell id="VgVbzpThQSde7EoFAIkn-9" value="&lt;font color=&quot;#00cc00&quot; face=&quot;arial&quot;&gt;&lt;span style=&quot;font-size: 14.6667px&quot;&gt;&lt;b&gt;10000000010111101&lt;/b&gt;&lt;/span&gt;&lt;/font&gt;" style="text;html=1;align=center;verticalAlign=middle;resizable=0;points=[];autosize=1;strokeColor=none;fillColor=none;" parent="1" vertex="1">
          <mxGeometry x="1125" y="810" width="150" height="20" as="geometry" />
        </mxCell>
        <mxCell id="VgVbzpThQSde7EoFAIkn-10" value="&lt;font color=&quot;#00cc00&quot; face=&quot;arial&quot;&gt;&lt;span style=&quot;font-size: 14.6667px&quot;&gt;&lt;b&gt;10000000011010111&lt;/b&gt;&lt;/span&gt;&lt;/font&gt;" style="text;html=1;align=center;verticalAlign=middle;resizable=0;points=[];autosize=1;strokeColor=none;fillColor=none;" parent="1" vertex="1">
          <mxGeometry x="1285" y="810" width="150" height="20" as="geometry" />
        </mxCell>
        <mxCell id="VgVbzpThQSde7EoFAIkn-11" value="&lt;span id=&quot;docs-internal-guid-63da66d7-7fff-e41a-0dd7-0c06654d972f&quot;&gt;&lt;span style=&quot;font-size: 11pt ; font-family: &amp;#34;arial&amp;#34; ; background-color: transparent ; vertical-align: baseline&quot;&gt;&lt;font color=&quot;#00cc00&quot;&gt;&lt;b&gt;10000000000101011 &lt;/b&gt;&lt;/font&gt;&lt;/span&gt;&lt;/span&gt;" style="text;html=1;align=center;verticalAlign=middle;resizable=0;points=[];autosize=1;strokeColor=none;fillColor=none;" parent="1" vertex="1">
          <mxGeometry x="1445" y="810" width="150" height="20" as="geometry" />
        </mxCell>
      </root>
    </mxGraphModel>
  </diagram>
</mxfile>
